<svg xmlns="http://www.w3.org/2000/svg" viewBox="1779.505 349.786 131.871 70.057">
  <defs>
    <style>
      .cls-1 {
        fill: #e31937;
      }

      .cls-2 {
        fill: #717074;
      }

      .cls-3 {
        fill: #aeb0b2;
      }

      .cls-4 {
        fill: #c9cbcc;
      }
    </style>
  </defs>
  <g id="rocket" transform="translate(1911.376 349.786) rotate(90)">
    <g id="Group_11" data-name="Group 11" transform="translate(0 0)">
      <g id="Group_1" data-name="Group 1" transform="translate(47.824 77.183)">
        <path id="Path_43" data-name="Path 43" class="cls-1" d="M2.922,1.849a2.062,2.062,0,0,1,3.787-.9L19.333,20.686a18.506,18.506,0,0,1,2.9,9.956V52.628a2.061,2.061,0,0,1-3.656,1.3L.465,31.8A2.073,2.073,0,0,1,.01,30.28Z"/>
      </g>
      <g id="Group_2" data-name="Group 2" transform="translate(0 77.183)">
        <path id="Path_44" data-name="Path 44" class="cls-1" d="M19.311,1.849a2.062,2.062,0,0,0-3.787-.9L2.9,20.686A18.506,18.506,0,0,0,0,30.642V52.628a2.061,2.061,0,0,0,3.656,1.3L21.768,31.8a2.073,2.073,0,0,0,.455-1.515Z"/>
      </g>
      <g id="Group_3" data-name="Group 3" transform="translate(12.363 0)">
        <path id="Path_45" data-name="Path 45" class="cls-2" d="M23.726.294a2.058,2.058,0,0,0-2.121,0A48.7,48.7,0,0,0,0,41.21c0,11.159,2.773,40.848,6.451,69.058a8.26,8.26,0,0,0,8.163,7.179h16.1a8.26,8.26,0,0,0,8.163-7.179c3.678-28.211,6.451-57.9,6.451-69.058A48.694,48.694,0,0,0,23.726.294Z"/>
      </g>
      <g id="Group_4" data-name="Group 4" transform="translate(12.363 0.001)">
        <path id="Path_46" data-name="Path 46" class="cls-2" d="M22.665,117.447H14.614a8.26,8.26,0,0,1-8.163-7.179C2.773,82.057,0,52.368,0,41.21A48.694,48.694,0,0,1,21.6.294,2.056,2.056,0,0,1,22.662,0h0V117.447Z"/>
      </g>
      <g id="Group_5" data-name="Group 5" transform="translate(22.666 30.908)">
        <circle id="Ellipse_3" data-name="Ellipse 3" class="cls-3" cx="12.363" cy="12.363" r="12.363"/>
      </g>
      <g id="Group_7" data-name="Group 7" transform="translate(32.968 78.299)">
        <g id="Group_6" data-name="Group 6" transform="translate(0)">
          <path id="Path_47" data-name="Path 47" class="cls-1" d="M2.06,53.573A2.06,2.06,0,0,1,0,51.512V2.06a2.06,2.06,0,0,1,4.121,0V51.512A2.06,2.06,0,0,1,2.06,53.573Z"/>
        </g>
      </g>
      <g id="Group_8" data-name="Group 8" transform="translate(17.723)">
        <path id="Path_48" data-name="Path 48" class="cls-1" d="M16.245.294A48.106,48.106,0,0,0,0,18.545H34.61A48.1,48.1,0,0,0,18.365.294,2.057,2.057,0,0,0,16.245.294Z"/>
      </g>
      <g id="Group_9" data-name="Group 9" transform="translate(17.723 0)">
        <path id="Path_49" data-name="Path 49" class="cls-1" d="M17.3,0a2.054,2.054,0,0,0-1.06.294A48.106,48.106,0,0,0,0,18.545H17.3Z"/>
      </g>
      <g id="Group_10" data-name="Group 10" transform="translate(35.028 30.908)">
        <path id="Path_50" data-name="Path 50" class="cls-4" d="M12.363,12.363A12.363,12.363,0,0,0,0,0V24.726A12.363,12.363,0,0,0,12.363,12.363Z"/>
      </g>
    </g>
    <g id="Group_13" data-name="Group 13" transform="translate(20.605 28.847)">
      <g id="Group_12" data-name="Group 12">
        <path id="Path_51" data-name="Path 51" d="M14.423,28.847A14.423,14.423,0,1,1,28.847,14.423,14.44,14.44,0,0,1,14.423,28.847Zm0-24.726a10.3,10.3,0,1,0,10.3,10.3A10.314,10.314,0,0,0,14.423,4.121Z"/>
      </g>
    </g>
  </g>
</svg>
